<svg width="193" height="51" viewBox="0 0 193 51" fill="none" xmlns="http://www.w3.org/2000/svg">
<rect y="0.787537" width="193" height="50.1002" rx="25" fill="#13D4EA"/>
<path d="M59.8433 34.8357V14.4721H73.0876V17.5644H63.5322V23.0928H72.4015V26.1851H63.5322V31.7434H73.1671V34.8357H59.8433ZM79.1714 25.8868V34.8357H75.572V19.563H79.0123V22.1581H79.1913C79.5426 21.303 80.1028 20.6236 80.8717 20.1198C81.6473 19.616 82.6051 19.3641 83.7453 19.3641C84.7993 19.3641 85.7174 19.5895 86.4996 20.0402C87.2884 20.491 87.8982 21.1439 88.3291 21.999C88.7666 22.8542 88.982 23.8916 88.9754 25.1113V34.8357H85.376V25.6681C85.376 24.6472 85.1108 23.8485 84.5805 23.2718C84.0568 22.6951 83.331 22.4067 82.403 22.4067C81.7732 22.4067 81.2131 22.5459 80.7226 22.8243C80.2387 23.0961 79.8575 23.4905 79.5791 24.0076C79.3073 24.5246 79.1714 25.151 79.1714 25.8868ZM104.61 19.563L99.1707 34.8357H95.1935L89.7546 19.563H93.5926L97.1026 30.9081H97.2617L100.782 19.563H104.61ZM105.98 34.8357V19.563H109.58V34.8357H105.98ZM107.79 17.3954C107.22 17.3954 106.729 17.2064 106.319 16.8286C105.908 16.4441 105.702 15.9834 105.702 15.4465C105.702 14.9029 105.908 14.4422 106.319 14.0644C106.729 13.6799 107.22 13.4877 107.79 13.4877C108.367 13.4877 108.857 13.6799 109.262 14.0644C109.673 14.4422 109.878 14.9029 109.878 15.4465C109.878 15.9834 109.673 16.4441 109.262 16.8286C108.857 17.2064 108.367 17.3954 107.79 17.3954ZM116.556 35.1439C115.588 35.1439 114.717 34.9716 113.941 34.6269C113.172 34.2756 112.562 33.7585 112.111 33.0758C111.667 32.393 111.445 31.5511 111.445 30.5502C111.445 29.6884 111.604 28.9758 111.923 28.4124C112.241 27.849 112.675 27.3982 113.225 27.0601C113.775 26.7221 114.395 26.4668 115.085 26.2945C115.781 26.1155 116.5 25.9863 117.242 25.9067C118.137 25.8139 118.863 25.7311 119.42 25.6581C119.977 25.5786 120.381 25.4593 120.633 25.3002C120.891 25.1345 121.021 24.8793 121.021 24.5346V24.4749C121.021 23.7258 120.799 23.1458 120.354 22.7348C119.91 22.3239 119.271 22.1184 118.435 22.1184C117.554 22.1184 116.854 22.3106 116.337 22.6951C115.827 23.0795 115.482 23.5336 115.303 24.0573L111.942 23.58C112.208 22.652 112.645 21.8764 113.255 21.2533C113.865 20.6236 114.611 20.1529 115.492 19.8414C116.374 19.5232 117.348 19.3641 118.415 19.3641C119.151 19.3641 119.884 19.4503 120.613 19.6226C121.342 19.795 122.008 20.08 122.611 20.4777C123.215 20.8688 123.699 21.4025 124.063 22.0786C124.434 22.7547 124.62 23.5999 124.62 24.6141V34.8357H121.16V32.7377H121.04C120.822 33.1619 120.513 33.5597 120.116 33.9309C119.725 34.2954 119.231 34.5904 118.634 34.8158C118.044 35.0346 117.352 35.1439 116.556 35.1439ZM117.491 32.499C118.213 32.499 118.84 32.3565 119.37 32.0715C119.9 31.7798 120.308 31.3954 120.593 30.9181C120.885 30.4408 121.031 29.9204 121.031 29.357V27.5573C120.918 27.6501 120.726 27.7363 120.454 27.8158C120.189 27.8954 119.89 27.965 119.559 28.0246C119.228 28.0843 118.899 28.1373 118.575 28.1837C118.25 28.2301 117.968 28.2699 117.729 28.303C117.192 28.3759 116.712 28.4953 116.288 28.661C115.863 28.8267 115.529 29.0587 115.283 29.357C115.038 29.6487 114.915 30.0265 114.915 30.4905C114.915 31.1534 115.157 31.6539 115.641 31.9919C116.125 32.33 116.742 32.499 117.491 32.499ZM127.119 34.8357V19.563H130.609V22.1084H130.768C131.047 21.2268 131.524 20.5473 132.2 20.0701C132.883 19.5862 133.662 19.3442 134.537 19.3442C134.736 19.3442 134.958 19.3542 135.203 19.374C135.455 19.3873 135.664 19.4105 135.83 19.4436V22.7547C135.677 22.7017 135.435 22.6553 135.104 22.6155C134.779 22.5691 134.464 22.5459 134.159 22.5459C133.503 22.5459 132.913 22.6884 132.389 22.9735C131.872 23.2519 131.465 23.6397 131.166 24.1368C130.868 24.634 130.719 25.2074 130.719 25.857V34.8357H127.119Z" fill="#303030"/>
</svg>