<svg width="193" height="51" viewBox="0 0 193 51" fill="none" xmlns="http://www.w3.org/2000/svg">
<rect y="0.787537" width="193" height="50.1002" rx="25" fill="#303030"/>
<path d="M48.4767 34.8357V14.4721H56.1131C57.6775 14.4721 58.99 14.7438 60.0506 15.2874C61.1178 15.831 61.9232 16.5933 62.4668 17.5743C63.017 18.5488 63.2921 19.6856 63.2921 20.9848C63.2921 22.2907 63.0137 23.4242 62.4568 24.3854C61.9067 25.34 61.0946 26.0791 60.0208 26.6027C58.9469 27.1198 57.6278 27.3783 56.0634 27.3783H50.6245V24.3158H55.5662C56.481 24.3158 57.23 24.1899 57.8134 23.938C58.3967 23.6794 58.8276 23.3049 59.106 22.8144C59.391 22.3172 59.5335 21.7074 59.5335 20.9848C59.5335 20.2623 59.391 19.6458 59.106 19.1354C58.821 18.6184 58.3868 18.2273 57.8034 17.9621C57.2201 17.6903 56.4677 17.5544 55.5463 17.5544H52.1656V34.8357H48.4767ZM58.9966 25.6084L64.0378 34.8357H59.9213L54.9696 25.6084H58.9966ZM71.9512 35.134C70.4199 35.134 69.0975 34.8158 67.9839 34.1794C66.8768 33.5365 66.0251 32.6283 65.4285 31.455C64.8319 30.2751 64.5336 28.8864 64.5336 27.2888C64.5336 25.7178 64.8319 24.339 65.4285 23.1525C66.0317 21.9593 66.8735 21.0312 67.954 20.3684C69.0345 19.6989 70.3039 19.3641 71.7623 19.3641C72.7036 19.3641 73.5918 19.5166 74.427 19.8215C75.2689 20.1198 76.0113 20.5838 76.6543 21.2135C77.3039 21.8433 77.8144 22.6454 78.1856 23.6198C78.5568 24.5876 78.7424 25.741 78.7424 27.08V28.1837H66.2239V25.7576H75.2921C75.2855 25.0682 75.1363 24.455 74.8447 23.9181C74.553 23.3745 74.1453 22.947 73.6216 22.6354C73.1046 22.3239 72.5014 22.1681 71.812 22.1681C71.0762 22.1681 70.4299 22.3471 69.8731 22.705C69.3162 23.0563 68.8821 23.5204 68.5705 24.0971C68.2656 24.6671 68.1098 25.2936 68.1032 25.9763V28.0942C68.1032 28.9825 68.2656 29.7448 68.5904 30.3811C68.9152 31.0109 69.3693 31.4948 69.9526 31.8329C70.5359 32.1643 71.2187 32.33 72.0009 32.33C72.5246 32.33 72.9985 32.2571 73.4228 32.1113C73.847 31.9588 74.2149 31.7367 74.5265 31.4451C74.838 31.1534 75.0733 30.7921 75.2324 30.3613L78.5932 30.7391C78.3811 31.6274 77.9768 32.4029 77.3802 33.0658C76.7902 33.7221 76.0345 34.2325 75.1131 34.5971C74.1917 34.955 73.1377 35.134 71.9512 35.134ZM92.7385 23.5999L89.4573 23.9579C89.3644 23.6264 89.202 23.3149 88.97 23.0232C88.7447 22.7315 88.4397 22.4962 88.0553 22.3172C87.6708 22.1382 87.2001 22.0488 86.6433 22.0488C85.8943 22.0488 85.2645 22.2112 84.7541 22.536C84.2503 22.8608 84.0018 23.2817 84.0084 23.7988C84.0018 24.2429 84.1642 24.6042 84.4956 24.8826C84.8337 25.161 85.3905 25.3897 86.1661 25.5686L88.7712 26.1255C90.2162 26.437 91.2901 26.9309 91.9928 27.607C92.702 28.2831 93.06 29.1681 93.0666 30.2618C93.06 31.223 92.7783 32.0715 92.2215 32.8073C91.6713 33.5365 90.9056 34.1065 89.9246 34.5175C88.9435 34.9285 87.8166 35.134 86.5439 35.134C84.6746 35.134 83.1698 34.7429 82.0297 33.9607C80.8895 33.1719 80.2101 32.0748 79.9913 30.6695L83.5013 30.3314C83.6604 31.0208 83.9984 31.5412 84.5155 31.8925C85.0325 32.2438 85.7054 32.4195 86.534 32.4195C87.3891 32.4195 88.0751 32.2438 88.5922 31.8925C89.1159 31.5412 89.3777 31.107 89.3777 30.59C89.3777 30.1525 89.2087 29.7912 88.8706 29.5061C88.5392 29.2211 88.0221 29.0024 87.3195 28.8499L84.7144 28.303C83.2494 27.9981 82.1656 27.4844 81.4629 26.7618C80.7603 26.0327 80.4123 25.1113 80.4189 23.9976C80.4123 23.0563 80.6675 22.241 81.1845 21.5516C81.7082 20.8556 82.4341 20.3186 83.3621 19.9408C84.2967 19.5563 85.3739 19.3641 86.5936 19.3641C88.3834 19.3641 89.792 19.7453 90.8195 20.5076C91.8536 21.2699 92.4932 22.3007 92.7385 23.5999ZM101.676 35.134C100.145 35.134 98.8223 34.8158 97.7087 34.1794C96.6017 33.5365 95.7499 32.6283 95.1533 31.455C94.5567 30.2751 94.2584 28.8864 94.2584 27.2888C94.2584 25.7178 94.5567 24.339 95.1533 23.1525C95.7565 21.9593 96.5984 21.0312 97.6789 20.3684C98.7594 19.6989 100.029 19.3641 101.487 19.3641C102.428 19.3641 103.317 19.5166 104.152 19.8215C104.994 20.1198 105.736 20.5838 106.379 21.2135C107.029 21.8433 107.539 22.6454 107.91 23.6198C108.282 24.5876 108.467 25.741 108.467 27.08V28.1837H95.9488V25.7576H105.017C105.01 25.0682 104.861 24.455 104.569 23.9181C104.278 23.3745 103.87 22.947 103.346 22.6354C102.829 22.3239 102.226 22.1681 101.537 22.1681C100.801 22.1681 100.155 22.3471 99.5979 22.705C99.0411 23.0563 98.6069 23.5204 98.2953 24.0971C97.9904 24.6671 97.8346 25.2936 97.828 25.9763V28.0942C97.828 28.9825 97.9904 29.7448 98.3152 30.3811C98.64 31.0109 99.0941 31.4948 99.6775 31.8329C100.261 32.1643 100.944 32.33 101.726 32.33C102.249 32.33 102.723 32.2571 103.148 32.1113C103.572 31.9588 103.94 31.7367 104.251 31.4451C104.563 31.1534 104.798 30.7921 104.957 30.3613L108.318 30.7391C108.106 31.6274 107.702 32.4029 107.105 33.0658C106.515 33.7221 105.759 34.2325 104.838 34.5971C103.917 34.955 102.863 35.134 101.676 35.134ZM118.019 19.563V22.3471H109.239V19.563H118.019ZM111.407 15.9039H115.006V30.2419C115.006 30.7258 115.079 31.0971 115.225 31.3556C115.377 31.6075 115.576 31.7798 115.821 31.8726C116.067 31.9654 116.338 32.0118 116.637 32.0118C116.862 32.0118 117.068 31.9953 117.253 31.9621C117.445 31.929 117.591 31.8991 117.691 31.8726L118.297 34.6865C118.105 34.7528 117.83 34.8258 117.472 34.9053C117.121 34.9848 116.69 35.0312 116.179 35.0445C115.278 35.071 114.466 34.9351 113.743 34.6368C113.021 34.3319 112.447 33.8613 112.023 33.2249C111.605 32.5885 111.4 31.7931 111.407 30.8385V15.9039ZM124.304 35.1439C123.336 35.1439 122.464 34.9716 121.689 34.6269C120.92 34.2756 120.31 33.7585 119.859 33.0758C119.415 32.393 119.193 31.5511 119.193 30.5502C119.193 29.6884 119.352 28.9758 119.67 28.4124C119.989 27.849 120.423 27.3982 120.973 27.0601C121.523 26.7221 122.143 26.4668 122.832 26.2945C123.528 26.1155 124.248 25.9863 124.99 25.9067C125.885 25.8139 126.611 25.7311 127.168 25.6581C127.724 25.5786 128.129 25.4593 128.381 25.3002C128.639 25.1345 128.768 24.8793 128.768 24.5346V24.4749C128.768 23.7258 128.546 23.1458 128.102 22.7348C127.658 22.3239 127.018 22.1184 126.183 22.1184C125.302 22.1184 124.602 22.3106 124.085 22.6951C123.575 23.0795 123.23 23.5336 123.051 24.0573L119.69 23.58C119.955 22.652 120.393 21.8764 121.003 21.2533C121.613 20.6236 122.358 20.1529 123.24 19.8414C124.122 19.5232 125.096 19.3641 126.163 19.3641C126.899 19.3641 127.632 19.4503 128.361 19.6226C129.09 19.795 129.756 20.08 130.359 20.4777C130.963 20.8688 131.446 21.4025 131.811 22.0786C132.182 22.7547 132.368 23.5999 132.368 24.6141V34.8357H128.908V32.7377H128.788C128.57 33.1619 128.261 33.5597 127.864 33.9309C127.472 34.2954 126.979 34.5904 126.382 34.8158C125.792 35.0346 125.099 35.1439 124.304 35.1439ZM125.239 32.499C125.961 32.499 126.588 32.3565 127.118 32.0715C127.648 31.7798 128.056 31.3954 128.341 30.9181C128.633 30.4408 128.778 29.9204 128.778 29.357V27.5573C128.666 27.6501 128.473 27.7363 128.202 27.8158C127.937 27.8954 127.638 27.965 127.307 28.0246C126.975 28.0843 126.647 28.1373 126.322 28.1837C125.998 28.2301 125.716 28.2699 125.477 28.303C124.94 28.3759 124.46 28.4953 124.035 28.661C123.611 28.8267 123.276 29.0587 123.031 29.357C122.786 29.6487 122.663 30.0265 122.663 30.4905C122.663 31.1534 122.905 31.6539 123.389 31.9919C123.873 32.33 124.49 32.499 125.239 32.499ZM134.867 34.8357V19.563H138.357V22.1084H138.516C138.795 21.2268 139.272 20.5473 139.948 20.0701C140.631 19.5862 141.41 19.3442 142.285 19.3442C142.484 19.3442 142.706 19.3542 142.951 19.374C143.203 19.3873 143.412 19.4105 143.577 19.4436V22.7547C143.425 22.7017 143.183 22.6553 142.852 22.6155C142.527 22.5691 142.212 22.5459 141.907 22.5459C141.251 22.5459 140.661 22.6884 140.137 22.9735C139.62 23.2519 139.212 23.6397 138.914 24.1368C138.616 24.634 138.467 25.2074 138.467 25.857V34.8357H134.867Z" fill="white"/>
</svg>
